<svg xmlns="http://www.w3.org/2000/svg" viewBox="0 0 900 900">
  <defs>
    <linearGradient id="bg" x1="0" x2="1" y1="0" y2="1">
      <stop stop-color="#fdfaf6"/>
      <stop offset=".55" stop-color="#efe3d1"/>
      <stop offset="1" stop-color="#d9ae4a"/>
    </linearGradient>
    <linearGradient id="jar" x1="0" x2="1">
      <stop stop-color="#1f4d36"/>
      <stop offset="1" stop-color="#0a2218"/>
    </linearGradient>
  </defs>
  <rect width="900" height="900" fill="url(#bg)"/>
  <circle cx="450" cy="440" r="290" fill="#1f4d36" opacity=".08"/>
  <g transform="translate(210 180)">
    <ellipse cx="240" cy="420" rx="230" ry="58" fill="#1f4d36" opacity=".16"/>
    <path d="M135 250h210c45 0 84 34 89 79l25 224H21l25-224c5-45 44-79 89-79Z" fill="url(#jar)"/>
    <path d="M92 190h296c24 0 44 20 44 44v44H48v-44c0-24 20-44 44-44Z" fill="#c89b3c"/>
    <rect x="86" y="100" width="308" height="106" rx="38" fill="#ead39a"/>
    <rect x="120" y="290" width="240" height="128" rx="18" fill="#fdfaf6" opacity=".95"/>
    <text x="240" y="344" text-anchor="middle" font-family="Georgia,serif" font-size="38" fill="#1f4d36" font-weight="700">Kumkumadi</text>
    <text x="240" y="384" text-anchor="middle" font-family="Inter,Arial" font-size="22" fill="#c89b3c" font-weight="700">LIP BALM</text>
    <path d="M54 139c65 12 92-24 111-86 38 50 31 108-17 144-33 24-70 14-94-58Z" fill="#6a3ea1" opacity=".45"/>
    <path d="M404 102c-54 27-63 70-43 125 49-24 72-75 43-125Z" fill="#1f4d36" opacity=".38"/>
  </g>
</svg>
