<svg xmlns="http://www.w3.org/2000/svg" viewBox="0 0 900 900">
  <defs>
    <linearGradient id="bg" x1="0" x2="1" y1="0" y2="1">
      <stop stop-color="#f7f2ea"/>
      <stop offset=".55" stop-color="#dfe9d9"/>
      <stop offset="1" stop-color="#1f4d36"/>
    </linearGradient>
    <linearGradient id="soap" x1="0" x2="1" y1="0" y2="1">
      <stop stop-color="#d9ae4a"/>
      <stop offset=".52" stop-color="#c89b3c"/>
      <stop offset="1" stop-color="#9f6f2c"/>
    </linearGradient>
  </defs>
  <rect width="900" height="900" fill="url(#bg)"/>
  <circle cx="452" cy="454" r="312" fill="#fdfaf6" opacity=".18"/>
  <g transform="translate(130 190)">
    <ellipse cx="320" cy="476" rx="270" ry="62" fill="#0a2218" opacity=".18"/>
    <rect x="96" y="180" width="448" height="284" rx="92" fill="url(#soap)"/>
    <rect x="132" y="212" width="376" height="220" rx="72" fill="#ead39a" opacity=".16"/>
    <text x="320" y="304" text-anchor="middle" font-family="Georgia,serif" font-size="42" fill="#1f4d36" font-weight="700">Twakrakshak</text>
    <text x="320" y="350" text-anchor="middle" font-family="Inter,Arial" font-size="24" fill="#fdfaf6" font-weight="700">SPECIAL SOAP</text>
    <path d="M42 124c98 0 154-46 172-123 44 90 18 174-62 214-52 26-94 0-110-91Z" fill="#1f4d36" opacity=".36"/>
    <path d="M528 110c-70 42-79 103-41 176 65-37 94-111 41-176Z" fill="#6a3ea1" opacity=".25"/>
    <circle cx="154" cy="84" r="12" fill="#c89b3c"/>
    <circle cx="490" cy="208" r="9" fill="#fdfaf6" opacity=".72"/>
  </g>
</svg>
